HIERARCHY
ROOT Hips
{
	OFFSET 0.000000 0.000000 0.000000 
	CHANNELS 6 Xposition Yposition Zposition Zrotation Yrotation Xrotation
	JOINT LeftUpLeg
	{
		OFFSET 1.363060 -1.794630 0.839290 
		CHANNELS 3 Zrotation Yrotation Xrotation
		JOINT LeftLeg
		{
			OFFSET 2.448110 -6.726130 0.000000 
			CHANNELS 3 Zrotation Yrotation Xrotation
			JOINT LeftFoot
			{
				OFFSET 2.562200 -7.039590 0.000000 
				CHANNELS 3 Zrotation Yrotation Xrotation
				JOINT LeftToeBase
				{
					OFFSET 0.157640 -0.433110 2.322550 
					CHANNELS 3 Zrotation Yrotation Xrotation
					End Site
					{
						OFFSET 0.000000 0.000000 0.000000 
					}
				}
			}
		}
	}
	JOINT RightUpLeg
	{
		OFFSET -1.305520 -1.794630 0.839290 
		CHANNELS 3 Zrotation Yrotation Xrotation
		JOINT RightLeg
		{
			OFFSET -2.542530 -6.985550 0.000000 
			CHANNELS 3 Zrotation Yrotation Xrotation
			JOINT RightFoot
			{
				OFFSET -2.568260 -7.056230 0.000000 
				CHANNELS 3 Zrotation Yrotation Xrotation
				JOINT RightToeBase
				{
					OFFSET -0.164730 -0.452590 2.363150 
					CHANNELS 3 Zrotation Yrotation Xrotation
					End Site
					{
						OFFSET 0.000000 0.000000 0.000000 
					}
				}
			}
		}
	}
	JOINT Spine
	{
		OFFSET 0.028270 2.035590 -0.193380 
		CHANNELS 3 Zrotation Yrotation Xrotation
		JOINT Spine1
		{
			OFFSET 0.056720 2.048850 -0.042750 
			CHANNELS 3 Zrotation Yrotation Xrotation
			JOINT Neck1
			{
				OFFSET -0.054170 1.746240 0.172020 
				CHANNELS 3 Zrotation Yrotation Xrotation
				JOINT Head
				{
					OFFSET 0.104070 1.761360 -0.123970 
					CHANNELS 3 Zrotation Yrotation Xrotation
					End Site
					{
						OFFSET 0.000000 0.000000 0.000000 
					}
				}
			}
			JOINT LeftArm
			{
				OFFSET 3.362410 1.200890 -0.311210 
				CHANNELS 3 Zrotation Yrotation Xrotation
				JOINT LeftForeArm
				{
					OFFSET 4.983000 -0.000000 -0.000000 
					CHANNELS 3 Zrotation Yrotation Xrotation
					JOINT LeftHand
					{
						OFFSET 3.483560 -0.000000 -0.000000 
						CHANNELS 3 Zrotation Yrotation Xrotation
						JOINT LeftHandIndex1
						{
							OFFSET 0.715260 -0.000000 -0.000000 
							CHANNELS 3 Zrotation Yrotation Xrotation
							End Site
							{
								OFFSET 0.000000 0.000000 0.000000 
							}
						}
					}
				}
			}
			JOINT RightArm
			{
				OFFSET -3.136600 1.374050 -0.404650 
				CHANNELS 3 Zrotation Yrotation Xrotation
				JOINT RightForeArm
				{
					OFFSET -5.241900 -0.000000 -0.000000 
					CHANNELS 3 Zrotation Yrotation Xrotation
					JOINT RightHand
					{
						OFFSET -3.444170 -0.000000 -0.000000 
						CHANNELS 3 Zrotation Yrotation Xrotation
						JOINT RightHandIndex1
						{
							OFFSET -0.622530 -0.000000 -0.000000 
							CHANNELS 3 Zrotation Yrotation Xrotation
							End Site
							{
								OFFSET 0.000000 0.000000 0.000000 
							}
						}
					}
				}
			}
		}
	}
}
MOTION
Frames: 10
Frame Time: 0.041667
41.804629 17.462172 -0.478392 -143.486385 -87.313836 137.201994 -22.569534 -3.515117 -16.296241 12.903892 20.525664 71.584425 -1.922200 8.584090 1.668892 0.629800 -5.078100 -14.131400 35.723398 10.417186 -1.987763 -1.727146 -12.877138 34.330801 2.785921 -15.507819 -21.829560 -1.267900 7.137000 -20.121800 2.756137 0.446447 2.187951 -3.351609 -0.532354 4.988880 7.924144 2.309444 19.828786 -0.956600 2.478300 8.252100 -100.043164 1.107519 20.740200 15.065808 -19.573578 -4.528089 -2.449828 -2.953534 -0.872502 -7.125000 0.000000 0.000000 99.925094 -1.998268 32.145328 -12.995856 20.197792 -3.879623 0.997582 2.400252 -17.749435 7.125000 0.000000 0.000000 
41.581855 17.446394 -0.484820 -141.105307 -87.470441 134.669018 -22.378996 -4.766393 -17.630487 12.396001 20.600389 70.247965 -1.824652 8.219236 0.833242 0.511600 -4.584700 -12.727900 36.041450 10.245925 -0.887352 -1.738063 -12.818306 34.403400 2.625613 -15.465386 -23.109039 -1.178800 6.891000 -19.392900 2.646652 0.699887 2.207110 -3.925484 -0.322320 4.978596 8.052277 1.959385 19.825460 -0.936800 2.336100 8.230900 -99.418150 1.335083 20.926162 14.763022 -19.182964 -4.331753 -2.441335 -2.895668 -0.413277 -7.125000 0.000000 0.000000 100.422859 -2.038201 31.768812 -13.150626 20.463050 -3.991611 0.969895 2.421002 -17.797132 7.125000 0.000000 0.000000 
41.360133 17.432719 -0.488560 -142.940002 -87.500175 136.313547 -22.278772 -5.682705 -18.746362 11.602239 20.541450 68.129326 -1.658731 7.664809 -0.211986 0.709800 -5.384500 -15.008700 36.218184 9.927858 0.430734 -1.683040 -12.625787 34.100394 2.437157 -15.185403 -23.930823 -1.105300 6.679900 -18.770500 2.646641 1.042835 2.345100 -3.963107 -0.138140 5.379741 8.166937 1.623402 19.819018 -0.902000 2.180100 8.184800 -99.269548 1.176889 20.785692 14.462958 -18.689359 -4.098699 -2.487966 -2.804505 0.304631 -7.125000 0.000000 0.000000 100.380442 -1.665130 31.619448 -13.304333 20.679484 -4.089388 0.934712 2.427280 -18.054173 7.125000 0.000000 0.000000 
41.121463 17.446978 -0.491482 -138.844735 -87.594017 132.327370 -21.989227 -6.936037 -19.878933 10.668171 20.417907 65.534643 -1.784093 8.134844 -1.227609 0.861100 -5.917300 -16.544700 36.459394 9.617202 1.423028 -1.604992 -12.429251 33.695639 2.385442 -15.215662 -24.414376 -1.059500 6.544600 -18.373000 2.607416 1.092378 2.288088 -4.282340 -0.056605 5.235812 8.211230 1.509762 19.911701 -0.891100 2.142600 8.254500 -99.053743 1.660460 20.435901 14.271658 -18.465114 -3.964378 -2.494125 -2.867193 0.735832 -7.125000 0.000000 0.000000 100.457356 -1.775950 32.008303 -13.458521 20.971096 -4.215838 0.915902 2.428273 -18.322756 7.125000 0.000000 0.000000 
40.887468 17.450251 -0.493820 -136.382166 -87.673795 129.896119 -21.688408 -7.955009 -20.722571 9.613768 20.157506 62.590029 -1.815428 8.290452 -1.881227 0.921600 -6.116200 -17.121900 36.651555 9.263891 2.563216 -1.499551 -12.177482 33.147585 2.326580 -15.243454 -24.936801 -1.008300 6.389200 -17.918000 2.570972 1.246505 2.284182 -4.534892 0.066503 5.232248 8.295776 1.287445 19.945856 -0.859600 2.045900 8.267100 -98.820045 1.947569 20.160531 14.045240 -18.156957 -3.807268 -2.507163 -2.857316 1.268408 -7.125000 0.000000 0.000000 100.539649 -1.788948 32.128650 -13.621404 21.254282 -4.339020 0.891739 2.437420 -18.552973 7.125000 0.000000 0.000000 
40.650084 17.461471 -0.494989 -133.696418 -87.749884 127.295720 -21.355561 -8.889313 -21.353699 8.419978 19.743389 59.201431 -1.872420 8.529129 -2.312066 0.953900 -6.219400 -17.422400 36.788370 8.854862 3.723297 -1.356708 -11.859428 32.393829 2.308787 -15.330055 -25.286423 -0.964100 6.251700 -17.516500 2.538340 1.378735 2.265005 -4.758656 0.175407 5.198258 8.371509 1.082392 19.973014 -0.829200 1.955000 8.280000 -98.628366 2.273859 19.816259 13.836045 -17.878490 -3.665150 -2.520114 -2.846676 1.772722 -7.125000 0.000000 0.000000 100.587821 -1.847175 32.280269 -13.787046 21.545543 -4.465425 0.869743 2.447906 -18.784883 7.125000 0.000000 0.000000 
40.410129 17.477718 -0.494872 -130.861653 -87.832561 124.585713 -21.012333 -9.768128 -21.787341 7.161477 19.188212 55.557060 -1.947172 8.817513 -2.521480 0.933200 -6.153600 -17.230600 36.867809 8.412797 4.853480 -1.207080 -11.523418 31.583262 2.297235 -15.406138 -25.561674 -0.920700 6.113300 -17.113600 2.502486 1.495719 2.234723 -4.972500 0.275891 5.143132 8.446927 0.885735 19.990016 -0.797700 1.866900 8.289300 -98.447080 2.636453 19.445268 13.644125 -17.635126 -3.540841 -2.529161 -2.831099 2.215961 -7.125000 0.000000 0.000000 100.638389 -1.946759 32.406982 -13.951139 21.835066 -4.590562 0.849669 2.461747 -18.997009 7.125000 0.000000 0.000000 
40.168887 17.494899 -0.493352 -128.423006 -87.922415 122.280874 -20.694348 -10.600741 -22.008901 5.891416 18.502535 51.779346 -2.048342 9.179014 -2.519861 0.883400 -5.991600 -16.760200 36.871532 7.914993 5.987711 -1.049647 -11.160564 30.698933 2.290517 -15.457304 -25.743677 -0.881700 5.985800 -16.743200 2.465029 1.608773 2.204237 -5.155469 0.371136 5.089626 8.520133 0.697852 19.991418 -0.768900 1.782000 8.291200 -98.284114 3.014118 19.071578 13.472941 -17.427494 -3.432940 -2.537410 -2.821765 2.601536 -7.125000 0.000000 0.000000 100.683353 -2.053162 32.479921 -14.104843 22.102401 -4.705732 0.832210 2.477481 -19.183475 7.125000 0.000000 0.000000 
39.927646 17.509626 -0.489846 -126.614809 -88.017940 120.591724 -20.426427 -11.430593 -22.023192 4.687271 17.732251 48.076651 -2.185154 9.642170 -2.403626 0.806300 -5.730800 -16.005300 36.805417 7.357865 7.120859 -0.898567 -10.792413 29.808399 2.282232 -15.469681 -25.845381 -0.854700 5.895800 -16.482400 2.426825 1.723773 2.182877 -5.300767 0.463630 5.068068 8.592768 0.518552 19.992386 -0.743100 1.702300 8.296300 -98.136855 3.389791 18.731630 13.327518 -17.260175 -3.340570 -2.547081 -2.837405 2.931022 -7.125000 0.000000 0.000000 100.720811 -2.134483 32.479139 -14.236601 22.325924 -4.801316 0.819418 2.492078 -19.336869 7.125000 0.000000 0.000000 
39.686522 17.519327 -0.483768 -125.624794 -88.097719 119.681807 -20.206972 -12.310007 -21.845194 3.612688 16.937847 44.638817 -2.385877 10.288945 -2.325441 0.707800 -5.377100 -14.987300 36.695046 6.742209 8.246311 -0.765205 -10.439475 28.970989 2.276716 -15.457967 -25.865493 -0.846200 5.867300 -16.400000 2.386007 1.832208 2.161881 -5.429362 0.551397 5.031134 8.656643 0.373272 20.002752 -0.725700 1.642000 8.314600 -97.996693 3.805489 18.429330 13.210384 -17.143729 -3.266156 -2.556892 -2.885099 3.197200 -7.125000 0.000000 0.000000 100.760372 -2.218081 32.433690 -14.339872 22.499492 -4.874347 0.811561 2.503523 -19.445125 7.125000 0.000000 0.000000 
